<?xml version="1.0" standalone="no"?>
<!DOCTYPE svg PUBLIC "-//W3C//DTD SVG 20010904//EN"
 "http://www.w3.org/TR/2001/REC-SVG-20010904/DTD/svg10.dtd">
<svg version="1.0" xmlns="http://www.w3.org/2000/svg"
 width="500.000000pt" height="500.000000pt" viewBox="0 0 500.000000 500.000000"
 preserveAspectRatio="xMidYMid meet">
<metadata>
Created by potrace 1.14, written by Peter Selinger 2001-2017
</metadata>
<g transform="translate(0.000000,500.000000) scale(0.100000,-0.100000)"
fill="#000000" stroke="none">
<path d="M193 4914 c-29 -14 -66 -43 -83 -64 -65 -82 -60 98 -60 -2354 0
-2500 -7 -2286 74 -2369 81 -84 -139 -77 2376 -77 1866 0 2244 2 2282 14 61
18 113 59 146 115 l27 46 0 2270 0 2270 -27 46 c-15 25 -43 58 -62 73 -79 60
86 56 -2370 56 l-2251 -1 -52 -25z"/>
</g>
</svg>
